<?xml version="1.0" encoding="UTF-8"?>
<svg width="88px" height="88px" viewBox="0 0 88 88" version="1.1" xmlns="http://www.w3.org/2000/svg" xmlns:xlink="http://www.w3.org/1999/xlink">
    <!-- Generator: Sketch 52.6 (67491) - http://www.bohemiancoding.com/sketch -->
    <title>a2-1</title>
    <desc>Created with Sketch.</desc>
    <defs>
        <rect id="path-1" x="0" y="0" width="88" height="88" rx="8"></rect>
    </defs>
    <g id="folga_design" stroke="none" stroke-width="1" fill="none" fill-rule="evenodd">
        <g transform="translate(-244.000000, -1253.000000)" id="art2">
            <g transform="translate(160.000000, 1126.000000)">
                <g id="content" transform="translate(0.000000, 103.000000)">
                    <g id="1">
                        <g id="item" transform="translate(16.000000, 24.000000)">
                            <g id="a2-1" transform="translate(68.000000, 0.000000)">
                                <mask id="mask-2" fill="white">
                                    <use xlink:href="#path-1"></use>
                                </mask>
                                <use id="Rectangle" fill="#00E49E" fill-rule="nonzero" xlink:href="#path-1"></use>
                                <g id="flaticon1550581706-svg" mask="url(#mask-2)" fill="#143254" fill-rule="nonzero">
                                    <g transform="translate(16.000000, 16.000000)" id="Combined-Shape">
                                        <path d="M10.8423157,9.84151061 C4.30439753,7.84667405 9.9475983e-14,5.32979186 9.9475983e-14,0.999146911 C9.9475983e-14,0.477965552 0.425308172,0.055316092 0.950202914,0.055316092 C1.47466281,0.055316092 1.89997098,0.477965552 1.89997098,0.999146911 C1.89997098,5.84146571 10.5970459,8.14961605 21.1053772,10.4616559 C21.1145096,10.4642489 21.1214676,10.4728919 21.1310349,10.4728919 C23.3606415,9.16604924 25.9120559,8.50095975 28.5,8.55195422 C34.2760162,8.55195422 38.950058,11.5066114 38.950058,15.1600665 C38.950058,18.8135215 34.2760162,21.7686108 28.5,21.7686108 C22.7239838,21.7686108 18.049942,18.8135215 18.049942,15.1600665 C18.074295,13.9880568 18.525261,12.8640165 19.3202133,11.9975417 C17.1236572,11.5066114 15.039299,11.0100631 13.1054077,10.4871532 C11.3802566,18.8722949 5.49465182,20.3109454 2.3548508,20.8096545 C1.9508515,20.8723172 1.54163358,20.7288412 1.26722712,20.4276277 C0.992385809,20.1264143 0.888885498,19.7076543 0.991950961,19.3139592 C2.16698459,14.5355997 5.99780273,10.8514615 10.8423157,9.84151061 Z M24.3865127,12.0446469 C22.2965012,12.7810424 20.900116,14.0273831 20.900116,15.1600665 C20.8848953,15.497581 21.0518875,15.8173772 21.3380356,15.9988831 C21.6241836,16.1808212 21.986435,16.196811 22.2878037,16.0416667 C22.5896072,15.8860902 22.7848663,15.5822838 22.8000869,15.2452013 C23.3702087,14.5524537 24.1442871,14.0541767 25.0136032,13.8195155 C25.2527847,13.7404308 25.4497833,13.5684323 25.558937,13.3424142 C25.6680908,13.1163962 25.6807022,12.8558055 25.5928574,12.6207121 C25.5106659,12.3847543 25.3371506,12.191148 25.1105805,12.0831088 C24.8840103,11.9746374 24.623085,11.9612406 24.3865127,12.0446469 Z M40.8121948,14.5373283 C40.4986496,11.3743714 37.7815476,8.74988217 33.8676682,7.48495869 C37.6632614,3.87471943 42.5451736,1.59984515 47.7658539,1.00865442 C48.2316055,0.968031609 48.6899643,1.14478378 49.0061187,1.4870521 C49.3222732,1.82888829 49.4609985,2.29734644 49.3809814,2.75543283 C49.0413437,4.52943716 48.3951187,6.23170348 47.4714431,7.78703644 C47.2814026,8.11763649 47.0726624,8.43829702 46.8443528,8.77840447 C46.8347854,8.78791198 46.8256531,8.78791198 46.8256531,8.79741938 C46.4768829,9.31514348 46.0994111,9.81298831 45.6949768,10.2887931 C45.4101333,10.6289007 45.1061553,10.9590686 44.7830429,11.299176 C44.4407959,11.6483589 44.0798492,11.9975417 43.6906357,12.3467245 C43.3770904,12.6302195 43.0348435,12.9132823 42.6930313,13.1872699 C42.512558,13.3285852 42.3225174,13.4798402 42.1324768,13.6215876 C41.7241287,13.9327407 41.2775117,14.2443258 40.8121948,14.5373283 Z M56.7216797,26.7656419 C57.0926285,27.1342717 57.0926285,27.7319448 56.7216797,28.1005747 C55.7432099,29.0755208 53.200058,32.0448714 53.200058,34.0414366 C53.200058,48.4495499 44.8895874,55.7547313 28.5,55.7547313 C23.2558365,55.7547313 19.000145,51.808706 19.000145,46.9279253 C19.000145,41.0557763 25.5832901,32.7289759 27.7876739,26.0357288 C27.8981323,25.7397012 28.182106,25.543502 28.5,25.543502 C28.817894,25.543502 29.1018677,25.7397012 29.2123261,26.0357288 C31.4167099,32.7289759 37.999855,41.0557763 37.999855,46.9279253 C37.9837646,49.421903 36.8709182,51.7845052 34.9544219,53.394722 C40.6808624,52.5139862 44.8778457,50.3527692 47.5805969,46.8808201 C42.5042954,44.4538265 39.4523391,39.1741649 39.8998261,33.593722 C39.9146118,33.0906913 40.186409,32.6300119 40.6208496,32.3711498 C41.0552902,32.1118556 41.5923614,32.09068 42.0459366,32.3145373 C44.7982636,33.7147259 49.264,37.7450217 48.70475,45.2152872 C50.5481873,41.7839608 51.4435959,37.9286885 51.3000869,34.0414366 C51.3000869,26.9043642 48.0967942,21.1605659 42.2798996,17.8688263 C42.2251053,17.8307965 42.1746597,17.7871487 42.1294327,17.738315 C41.4597244,17.9397001 40.7608795,18.1225025 40.0141983,18.275486 C40.2599029,17.843329 40.4547271,17.3839462 40.5934524,16.9068449 L41.8284988,16.1324196 C42.3225174,15.8208344 42.8165359,15.4811591 43.2722854,15.1319763 C43.4340591,15.0187511 43.5858306,14.8865111 43.7380371,14.7732859 L43.8898086,14.6596286 C44.2603225,14.357551 44.6308365,14.0554732 44.9635162,13.7533955 C45.3814316,13.3761225 45.77108,12.9984174 46.1602935,12.5921897 C46.5121079,12.2239921 46.8443527,11.8653017 47.1391983,11.5066114 C47.5531997,11.0282137 47.9398041,10.5269116 48.2981415,10.0057303 L48.3168411,9.97720796 L48.7256241,9.37305246 C48.8678284,9.15610972 48.991333,8.93873473 49.1148376,8.73129939 C49.2383423,8.52343192 49.3431472,8.32507184 49.4475174,8.127144 C50.0411225,8.25333373 50.6277695,8.4110711 51.2048492,8.5990593 C51.6497268,8.74037466 52.0028457,9.07875359 52.1611404,9.51523207 C52.3190002,9.95171067 52.264206,10.4361586 52.0124131,10.8268285 C50.1350556,13.5714574 47.4770966,15.6981018 44.3781738,16.9349351 C48.9156646,19.8692809 51.9911041,24.5750381 52.843895,29.8875438 C53.5849228,28.7678251 54.4333648,27.7220052 55.3783493,26.7656419 C55.7492981,26.3970119 56.3507309,26.3970119 56.7216797,26.7656419 Z M26.4956589,51.7330785 C26.732666,51.268942 26.5508881,50.7010877 26.0868759,50.4586476 C25.2997513,50.0692742 24.647873,49.4543148 24.2156067,48.6932864 C24.0525284,48.3963946 23.742897,48.2084063 23.4023896,48.2001954 C23.0623169,48.1919844 22.743988,48.3648471 22.5665588,48.653528 C22.3895645,48.9422089 22.3804321,49.3026277 22.5435105,49.5995196 C23.1636429,50.6876908 24.0921021,51.5710197 25.213211,52.1388739 C25.3475876,52.2097477 25.4976196,52.2456167 25.6498261,52.2430237 C26.0051194,52.2412951 26.3299713,52.0450959 26.4956589,51.7330785 Z M27.1605835,38.2614494 C27.4071579,37.7999057 27.2305984,37.2272978 26.7661514,36.9822647 C26.3017044,36.7372317 25.7254944,36.9126875 25.47892,37.3737989 C24.5169754,39.1322457 23.64505,40.9377974 22.866623,42.7835399 C22.677887,43.2684199 22.9144592,43.8138021 23.3984756,44.0108657 C23.5102387,44.0553779 23.6298294,44.07785 23.749855,44.0769856 C24.1395035,44.0769856 24.4895782,43.8414601 24.633522,43.4819055 C25.381073,41.6979616 26.2247314,39.9555047 27.1605835,38.2614494 Z"></path>
                                    </g>
                                </g>
                            </g>
                        </g>
                    </g>
                </g>
            </g>
        </g>
    </g>
</svg>