<?xml version="1.0" encoding="UTF-8"?>
<svg width="88px" height="88px" viewBox="0 0 88 88" version="1.1" xmlns="http://www.w3.org/2000/svg" xmlns:xlink="http://www.w3.org/1999/xlink">
    <!-- Generator: Sketch 52.6 (67491) - http://www.bohemiancoding.com/sketch -->
    <title>a2-2</title>
    <desc>Created with Sketch.</desc>
    <defs>
        <rect id="path-1" x="0" y="0" width="88" height="88" rx="8"></rect>
    </defs>
    <g id="folga_design" stroke="none" stroke-width="1" fill="none" fill-rule="evenodd">
        <g transform="translate(-532.000000, -1253.000000)" id="art2">
            <g transform="translate(160.000000, 1126.000000)">
                <g id="content" transform="translate(0.000000, 103.000000)">
                    <g id="2" transform="translate(288.000000, 0.000000)">
                        <g id="item" transform="translate(16.000000, 24.000000)">
                            <g id="a2-2" transform="translate(68.000000, 0.000000)">
                                <mask id="mask-2" fill="white">
                                    <use xlink:href="#path-1"></use>
                                </mask>
                                <use id="Rectangle" fill="#00E49E" fill-rule="nonzero" xlink:href="#path-1"></use>
                                <g id="flaticon1550582241-svg" mask="url(#mask-2)" fill="#143254" fill-rule="nonzero">
                                    <g transform="translate(23.000000, 20.000000)" id="Combined-Shape">
                                        <path d="M40.7771104,23.8441558 C41.4364478,23.8441558 41.9759284,24.3806338 41.9759284,25.0363013 L41.9759284,27.4207169 C41.9759284,28.0763844 41.4365731,28.6128623 40.7771104,28.6128623 L33.5838269,28.6128623 C32.9244896,28.6128623 32.385009,28.0765091 32.385009,27.4207169 L32.385009,25.0363013 C32.385009,24.3806338 32.9243642,23.8441558 33.5838269,23.8441558 L33.5838269,21.4597403 C33.5838269,20.8040727 33.0444716,20.2675948 32.385009,20.2675948 L29.0340358,20.2675948 C28.2835522,24.2256623 24.794794,27.2217351 20.5962985,27.2217351 C17.294597,27.2217351 14.4317015,25.367813 12.9930448,22.6520104 L4.81069254,22.6520104 L4.81069254,27.4208416 C4.81069254,28.738161 3.73762388,29.8052571 2.41293134,29.8052571 C1.08823881,29.8052571 0.0151701493,28.738161 0.0151701493,27.4208416 L0.0151701493,9.53766234 C0.0151701493,8.22034286 1.08823881,7.15324675 2.41293134,7.15324675 C3.73762388,7.15324675 4.81069254,8.22034286 4.81069254,9.53766234 L4.81069254,13.1143481 L14.0830388,13.1143481 C15.0840179,11.9567377 16.3884,11.0709195 17.876203,10.5773299 C17.243194,10.3006753 16.7996239,9.67368312 16.7996239,8.94158961 C16.7996239,7.95441039 17.6052716,7.15324675 18.5979761,7.15324675 L19.1973851,7.15324675 L19.1973851,4.76883117 L13.8024537,4.76883117 C12.8097493,4.76883117 12.0041015,3.96766753 12.0041015,2.98048831 C12.0041015,1.99330909 12.8097493,1.19214545 13.8024537,1.19214545 L19.1973851,1.19214545 C19.1973851,0.534109091 19.5966985,-4.61852778e-14 20.396203,-4.61852778e-14 C21.1957075,-4.61852778e-14 21.5950209,0.534109091 21.5950209,1.19214545 L26.9899522,1.19214545 C27.9826567,1.19214545 28.7883045,1.99330909 28.7883045,2.98048831 C28.7883045,3.96766753 27.9826567,4.76883117 26.9899522,4.76883117 L21.5950209,4.76883117 L21.5950209,7.15312208 L22.1944299,7.15312208 C23.1871343,7.15312208 23.9927821,7.95428571 23.9927821,8.94146494 C23.9927821,9.61271688 23.6162866,10.190961 23.0660239,10.4961662 C25.1413254,11.1149299 26.8796239,12.4943377 27.9682388,14.3064935 L32.385009,14.3064935 C33.0444716,14.3064935 34.1233075,14.3064935 34.7827701,14.3064935 C35.4422328,14.3064935 36.5210687,14.3064935 37.1805313,14.3064935 L39.5782925,14.3064935 C40.2376299,14.3064935 40.7771104,14.8429714 40.7771104,15.498639 L40.7771104,23.8441558 Z M31.9352955,42.9981506 C31.9352955,40.2405818 36.9549851,33.0802286 36.9549851,33.0802286 C36.9549851,33.0802286 41.9759284,40.2405818 41.9759284,42.9981506 C41.9759284,45.7557195 39.7292418,47.9911481 36.9562388,47.9911481 C34.1832358,47.9911481 31.9352955,45.7557195 31.9352955,42.9981506 Z"></path>
                                    </g>
                                </g>
                            </g>
                        </g>
                    </g>
                </g>
            </g>
        </g>
    </g>
</svg>