<?xml version="1.0" encoding="UTF-8"?>
<svg width="88px" height="88px" viewBox="0 0 88 88" version="1.1" xmlns="http://www.w3.org/2000/svg" xmlns:xlink="http://www.w3.org/1999/xlink">
    <!-- Generator: Sketch 52.6 (67491) - http://www.bohemiancoding.com/sketch -->
    <title>a2-3</title>
    <desc>Created with Sketch.</desc>
    <defs>
        <rect id="path-1" x="0" y="0" width="88" height="88" rx="8"></rect>
    </defs>
    <g id="folga_design" stroke="none" stroke-width="1" fill="none" fill-rule="evenodd">
        <g transform="translate(-820.000000, -1253.000000)" id="art2">
            <g transform="translate(160.000000, 1126.000000)">
                <g id="content" transform="translate(0.000000, 103.000000)">
                    <g id="3" transform="translate(576.000000, 0.000000)">
                        <g id="item" transform="translate(16.000000, 24.000000)">
                            <g id="a2-3" transform="translate(68.000000, 0.000000)">
                                <mask id="mask-2" fill="white">
                                    <use xlink:href="#path-1"></use>
                                </mask>
                                <use id="Rectangle" fill="#00E49E" fill-rule="nonzero" xlink:href="#path-1"></use>
                                <g id="flaticon1550582042-svg" mask="url(#mask-2)" fill="#143254" fill-rule="nonzero">
                                    <g transform="translate(19.000000, 19.000000)" id="Shape">
                                        <path d="M50.9753019,6.97035256 L50.9753019,9.03028846 L42.9872264,9.03028846 L42.9872264,6.97035256 L50.9753019,6.97035256 Z M47.6253396,11.4599359 L42.987066,11.4599359 L42.987066,13.5198718 L47.6253396,13.5198718 L47.6253396,11.4599359 Z M42.9872264,18.0102564 L50.9753019,18.0102564 L50.9753019,15.9503205 L42.9872264,15.9503205 L42.9872264,18.0102564 Z M47.6253396,20.4399038 L42.987066,20.4399038 L42.987066,22.4998397 L47.6253396,22.4998397 L47.6253396,20.4399038 Z M42.9872264,26.9892628 L50.9753019,26.9892628 L50.9753019,24.9294872 L42.9872264,24.9294872 L42.9872264,26.9892628 Z M44.2322358,38.7266026 C44.2322358,44.4767628 39.5506604,49.1548077 33.7961604,49.1548077 C31.3605094,49.1548077 29.1218019,48.3102564 27.3428962,46.9064103 C26.658566,48.231891 25.466,49.9323718 24.9577642,49.9241987 C24.2259623,49.9160256 22.063434,46.3833333 22.063434,45.5427885 C22.063434,45.5386218 22.063434,45.5346154 22.063434,45.5346154 L22.0459528,45.5088141 L22.0676038,45.5088141 C22.0862075,44.3676282 23.071566,43.418109 24.3815283,43.1987179 C23.998066,42.3964744 23.7105094,41.5394231 23.5435566,40.6392628 C15.5152264,39.9203526 9.19395283,33.19375 9.19395283,24.9892628 C9.19395283,16.3048077 16.2646698,9.23942308 24.9577642,9.23942308 C26.1843302,9.23942308 27.3685566,9.40016026 28.5138113,9.66891026 L28.5138113,6.10112179 C28.5138113,3.19054487 30.8833868,0.822596154 33.7963208,0.822596154 C36.7092547,0.822596154 39.0788302,3.19038462 39.0788302,6.10112179 L39.0788302,29.7403846 C42.2738679,31.6116987 44.2322358,34.9991987 44.2322358,38.7266026 Z M28.5138113,29.7402244 L28.5138113,11.7822115 C27.3780189,11.4753205 26.1894623,11.2971154 24.9577642,11.2971154 C17.4025472,11.2971154 11.2554434,17.4386218 11.2554434,24.9870192 C11.2554434,31.9967949 16.5636132,37.7623397 23.3705094,38.5533654 C23.4312925,34.8972756 25.3680094,31.5838141 28.5138113,29.7402244 Z M42.1709057,38.7266026 C42.1709057,35.5647436 40.4125283,32.7065705 37.581066,31.2698718 L37.0173396,30.9834936 L37.0173396,6.1 C37.0173396,4.32435897 35.5723396,2.88141026 33.7963208,2.88141026 C32.0204623,2.88141026 30.5753019,4.32435897 30.5753019,6.1 L30.5753019,30.9833333 L30.0115755,31.2697115 C27.1801132,32.7075321 25.4207736,35.5655449 25.4207736,38.7264423 C25.4207736,43.3405449 29.1777736,47.0947115 33.7953585,47.0947115 C38.4129434,47.0947115 42.1709057,43.3407051 42.1709057,38.7266026 Z M40.4537453,38.7266026 C40.4537453,42.3942308 37.4676792,45.3780449 33.7963208,45.3780449 C30.1259245,45.3780449 27.1400189,42.3942308 27.1400189,38.7266026 C27.1400189,35.7201923 29.1726415,33.0804487 32.0833302,32.3070513 L32.4656698,32.2051282 L32.4656698,9.30929487 L35.1280943,9.30929487 L35.1280943,32.2038462 L35.510434,32.306891 C38.4220849,33.0804487 40.4537453,35.7211538 40.4537453,38.7266026 Z M34.1260566,34.2926282 C33.967283,33.588141 33.2582547,33.1246795 32.5355943,33.2894231 C30.0123774,33.8599359 28.2498302,36.0650641 28.2498302,38.6524038 C28.2498302,39.3846154 28.8465943,39.9810897 29.5795189,39.9810897 C30.3124434,39.9810897 30.9092075,39.3847756 30.9092075,38.6524038 C30.9092075,37.3371795 31.8389151,36.1713141 33.1220943,35.881891 C33.8354528,35.718109 34.2869151,35.0052885 34.1260566,34.2926282 Z M22.0645566,4.46762821 C22.0882925,5.77147436 23.3714717,6.82820513 24.9556792,6.82820513 C26.5450189,6.82820513 27.8283585,5.77147436 27.8488868,4.46762821 L27.8705377,4.46762821 L27.851934,4.44294872 L27.851934,4.43669872 C27.851934,3.59423077 25.689566,0.0594551282 24.9556792,0.0512820513 C24.2248396,0.0389423077 22.0613491,3.59326923 22.0613491,4.43669872 L22.0623113,4.44294872 L22.0469151,4.46762821 L22.0645566,4.46762821 Z M4.42176415,22.1001603 L4.42176415,22.080609 L4.39498113,22.0980769 C4.39401887,22.0980769 4.39081132,22.0980769 4.38872642,22.0980769 C3.54562264,22.0980769 0.00817924528,24.2588141 7.45192482e-16,24.9902244 C-0.0113867925,25.719391 3.54466038,27.8823718 4.38872642,27.8823718 C4.39081132,27.8823718 4.39385849,27.8802885 4.39498113,27.8802885 L4.42080189,27.8947115 L4.42080189,27.8782051 C5.72563208,27.8544872 6.78219811,26.5701923 6.78219811,24.9902244 C6.78316038,23.4041667 5.72563208,22.1217949 4.42176415,22.1001603 Z M8.3725,12.50625 L8.37971698,12.5330128 L8.38998113,12.5227564 C9.32995283,13.4280449 10.9853679,13.2674679 12.1057642,12.1467949 C13.2261604,11.0262821 13.3870189,9.37419872 12.4799245,8.43701923 L12.4933962,8.42259615 L12.4654906,8.41634615 C12.4645283,8.41217949 12.4613208,8.41009615 12.4603585,8.41009615 C11.8635943,7.81474359 7.83443396,6.84358974 7.30983962,7.35432692 C6.78412264,7.86522436 7.76948113,11.9046474 8.36528302,12.5009615 C8.36945283,12.5052885 8.36945283,12.5052885 8.3725,12.50625 Z M12.1057642,37.8294872 C10.9844057,36.7089744 9.33203774,36.5503205 8.39318868,37.455609 L8.37875472,37.4432692 L8.3725,37.4711538 C8.37041509,37.4711538 8.36833019,37.4753205 8.36833019,37.4753205 C7.7704434,38.0727564 6.79759434,42.0977564 7.30983962,42.6189103 C7.82320755,43.1503205 11.8656792,42.1647436 12.4603585,41.5673077 C12.4634057,41.5673077 12.4645283,41.563141 12.4645283,41.563141 L12.492434,41.5528846 L12.4821698,41.5447115 C13.390066,40.60625 13.227283,38.95 12.1057642,37.8294872 Z"></path>
                                    </g>
                                </g>
                            </g>
                        </g>
                    </g>
                </g>
            </g>
        </g>
    </g>
</svg>