<?xml version="1.0" encoding="UTF-8"?>
<svg width="88px" height="88px" viewBox="0 0 88 88" version="1.1" xmlns="http://www.w3.org/2000/svg" xmlns:xlink="http://www.w3.org/1999/xlink">
    <!-- Generator: Sketch 52.6 (67491) - http://www.bohemiancoding.com/sketch -->
    <title>a2-4</title>
    <desc>Created with Sketch.</desc>
    <defs>
        <rect id="path-1" x="0" y="0" width="88" height="88" rx="8"></rect>
    </defs>
    <g id="folga_design" stroke="none" stroke-width="1" fill="none" fill-rule="evenodd">
        <g transform="translate(-1108.000000, -1253.000000)" id="art2">
            <g transform="translate(160.000000, 1126.000000)">
                <g id="content" transform="translate(0.000000, 103.000000)">
                    <g id="4" transform="translate(864.000000, 0.000000)">
                        <g id="item" transform="translate(16.000000, 24.000000)">
                            <g id="a2-4" transform="translate(68.000000, 0.000000)">
                                <mask id="mask-2" fill="white">
                                    <use xlink:href="#path-1"></use>
                                </mask>
                                <use id="Rectangle" fill="#00E49E" fill-rule="nonzero" xlink:href="#path-1"></use>
                                <g id="flaticon1550582160-svg" mask="url(#mask-2)" fill="#143254" fill-rule="nonzero">
                                    <g transform="translate(24.000000, 19.000000)" id="Combined-Shape">
                                        <path d="M3.00966885,49.2985532 L35.7804984,49.2985532 L35.7804984,50.8681596 L3.00966885,50.8681596 L3.00966885,49.2985532 Z M18.9296328,48.2157527 L14.5025738,48.2157527 L13.8824656,48.2157527 L8.59951475,48.2157527 L11.5521869,43.7480984 L14.1925869,47.7461729 L16.8312393,43.7480984 L19.3568393,47.5711995 L21.8814984,43.7480984 L24.5210918,47.7461729 L27.1606852,43.7480984 L30.1125508,48.2157527 L24.8304066,48.2157527 L24.2086852,48.2157527 L19.7840459,48.2157527 L18.9296328,48.2157527 Z M36.8723082,25.2456782 C37.8093934,24.9132287 40.9549672,25.2456782 40.958059,25.2473059 L40.958059,26.5292234 C40.958059,26.5292234 37.8654492,26.4222048 37.2032656,26.8129787 C36.5379902,27.200633 35.8193475,30.4974574 35.2665869,30.4974574 C35.1977607,30.4974574 35.1103836,30.4974574 35.0135967,30.4974574 C34.8760787,34.0845479 34.3918754,38.0747553 33.0205934,39.338633 L34.3918754,39.338633 L34.3918754,41.3810745 L6.08103934,41.3810745 L6.08103934,39.338633 L7.74200984,39.338633 C6.40352787,38.1078511 5.9147541,34.2972287 5.76392787,30.7812128 C5.74134426,30.7812128 5.7077377,30.7812128 5.68743934,30.7812128 C5.13212459,30.7812128 4.41764918,27.4858803 3.75076066,27.096734 C3.08696393,26.7074521 -1.03028697e-13,26.816234 -1.03028697e-13,26.816234 L-1.03028697e-13,25.533367 C-1.03028697e-13,25.533367 3.14100328,25.1976622 4.08507869,25.533367 C4.59643607,25.7153936 5.23294426,26.2724601 5.71324918,26.7467872 C5.73045574,25.450492 5.7733377,24.5436144 5.78503279,24.2914628 L4.5566459,24.2914628 L4.5566459,22.7438298 L36.0630623,22.7438298 L36.0630623,24.2914628 L34.979318,24.2914628 C34.9885934,24.538867 35.0291902,25.4055957 35.0494885,26.6521117 C35.5383967,26.1510638 36.2880918,25.4537473 36.8723082,25.2456782 Z M9.61873443,36.7289521 C10.2137049,37.9281303 10.8706459,38.584891 10.8706459,38.584891 C10.8706459,38.584891 10.8339475,37.6629574 10.6793574,36.3975878 C10.5942656,35.7736516 10.4981508,35.0407979 10.3927607,34.2638617 C10.2826656,33.4789229 10.1576492,32.7413218 10.0491672,31.8621144 C9.99459016,31.4036569 9.90788525,31.0458431 9.89377049,30.6265851 C9.86016393,30.2168218 9.82817049,29.8134335 9.77345902,29.4194043 C9.66484262,28.6283617 9.62653115,27.8972713 9.5719541,27.2573298 C9.48753443,26.6112846 9.48914754,26.092875 9.45244918,25.7058989 C9.4141377,25.3213644 9.41884262,25.098375 9.41884262,25.098375 C9.41884262,25.098375 8.98222623,25.8815505 8.71834754,27.1912739 C8.65745246,27.517484 8.58862623,27.8720426 8.51684262,28.2439628 C8.43027213,28.6221223 8.44815082,29.0161516 8.40284918,29.4290346 C8.36924262,29.8389335 8.35512787,30.2644309 8.34343279,30.7024069 C8.32004262,31.1341436 8.32313443,31.6258324 8.3645377,32.0293564 C8.39814426,32.451734 8.4075541,32.8865904 8.51684262,33.3341968 C8.60905902,33.7676968 8.66672787,34.2182872 8.80263279,34.6077048 C9.0251082,35.4113617 9.31950164,36.1330931 9.61873443,36.7289521 Z M13.4794557,12.8777713 C13.3030885,12.5633617 13.1368033,12.2356596 13.0646164,11.9523112 C12.8444262,11.3675745 12.8343443,10.7718511 12.8233213,10.2313324 C12.8359574,9.13917287 13.1100525,8.20625266 13.4169475,7.46078457 C14.0339639,5.96442287 14.8015377,5.1984734 14.8015377,5.1984734 C14.8015377,5.1984734 14.6750426,6.26933777 14.5797344,7.73653723 C14.5461279,8.472375 14.5298623,9.31319681 14.6516525,10.1248564 C14.7070361,10.5282447 14.8163246,10.9270213 14.9569344,11.2737128 C15.0162164,11.4754069 15.1037279,11.5858165 15.1662361,11.715758 C15.1935246,11.8292872 15.4512197,12.082117 15.5808066,12.2618378 L15.607423,12.298867 L15.6158918,12.3083617 C15.5869902,12.2760798 15.5722033,12.2602101 15.5627934,12.2484096 L15.5808066,12.2711968 L15.6558164,12.3681782 L15.8073148,12.565125 C15.9018164,12.697508 16.0094918,12.8212101 16.0892066,12.9622739 C16.2265902,13.2490133 16.4069902,13.5232739 16.4922164,13.8219495 C16.7085082,14.4042447 16.7733016,15.0045798 16.7733016,15.5467261 C16.7960197,16.0975532 16.6982918,16.6072819 16.5992197,17.07225 C16.5016262,17.5403378 16.351741,17.9594601 16.197823,18.3321941 C15.580941,19.8333032 14.8046295,20.59125 14.8046295,20.59125 C14.8046295,20.59125 14.9460459,19.5220133 15.0413541,18.0564415 C15.0749607,17.3252154 15.0850426,16.4860213 14.9523639,15.6838564 C14.9055836,15.2757207 14.757177,14.9046144 14.6227508,14.5546676 C14.5665607,14.3672154 14.4415443,14.2315771 14.3650557,14.0637926 L13.9496787,13.5586755 C13.7879639,13.3230718 13.6629475,13.2260904 13.4794557,12.8777713 Z M15.5630623,12.2481383 C15.5357738,12.2158564 15.5646754,12.249766 15.5630623,12.2481383 Z M18.0502164,7.68106117 C17.8761344,7.36515957 17.7098492,7.03732181 17.637259,6.75383777 C17.4153213,6.16991489 17.4068525,5.57419149 17.3943508,5.03367287 C17.4068525,3.94069947 17.6809475,3.00845745 17.9893213,2.26231117 C18.6063377,0.766763298 19.3748525,7.46069873e-14 19.3748525,7.46069873e-14 C19.3748525,7.46069873e-14 19.2467443,1.07167819 19.1521082,2.54036968 C19.1185016,3.27634309 19.1021016,4.1147234 19.2224131,4.92868883 C19.2784689,5.33207713 19.3870852,5.72841223 19.5276951,6.07754521 C19.5871115,6.279375 19.6752951,6.38734309 19.7369967,6.5180984 C19.7642852,6.63081383 20.0219803,6.88608511 20.1515672,7.06336436 L20.1806033,7.10039362 L20.1867869,7.11056649 C20.1578852,7.07760638 20.1437705,7.06187234 20.1336885,7.05075 L20.154659,7.07760638 L20.2298033,7.17445213 L20.378882,7.36827926 C20.472577,7.50066223 20.5802525,7.62517819 20.6599672,7.76542819 C20.7973508,8.05298138 20.9785574,8.32724202 21.062977,8.62510372 C21.2784623,9.20821277 21.3440623,9.80854787 21.3440623,10.3506941 C21.3659738,10.9007074 21.2690525,11.4104362 21.1691738,11.8754043 C21.0723869,12.343492 20.9225016,12.7634282 20.7685836,13.1361622 C20.1517016,14.6364574 19.3763311,15.3952181 19.3763311,15.3952181 C19.3763311,15.3952181 19.5168066,14.3251676 19.6129213,12.8595957 C19.6465279,12.1291835 19.6558033,11.2899894 19.5231246,10.4878245 C19.4770164,10.0795532 19.3278033,9.70844681 19.1936459,9.35782181 C19.1373213,9.17118351 19.0131115,9.03554521 18.9358164,8.86776064 L18.5204393,8.36264362 C18.3587246,8.12703989 18.2337082,8.03019415 18.0502164,7.68106117 Z M23.6963869,12.3939495 C23.522977,12.077234 23.3558852,11.7502101 23.2841016,11.4675399 C23.0622984,10.883617 23.0545016,10.2878936 23.042,9.747375 C23.0545016,8.6544016 23.3277902,7.72229521 23.6371049,6.97682713 C24.2541213,5.48046543 25.0208885,4.71370213 25.0208885,4.71370213 C25.0208885,4.71370213 24.8960066,5.78538032 24.7992197,7.25257979 C24.7648066,7.98855319 24.7490787,8.82693351 24.8693902,9.64089894 C24.9255803,10.0442872 25.0332557,10.4406223 25.1754787,10.7897553 C25.233282,10.9915851 25.3222721,11.0995532 25.3847803,11.2303085 C25.4113967,11.3430239 25.6689574,11.5982952 25.7986787,11.7755745 L25.8267738,11.8126037 L25.8361836,11.8260319 C25.8080885,11.79375 25.7938393,11.7773378 25.7845639,11.7662154 L25.8017705,11.7906303 L25.8767803,11.8874761 L26.0266656,12.0804894 C26.1203607,12.2128723 26.2266918,12.3373883 26.3078852,12.4776383 C26.4452689,12.7651915 26.6264754,13.0394521 26.7107607,13.3381277 C26.9263803,13.9204229 26.9919803,14.520758 26.9919803,15.0629043 C27.0137574,15.6129176 26.9169705,16.1234601 26.8169574,16.5876144 C26.7201705,17.0557021 26.5702852,17.4756383 26.4171738,17.8483723 C25.7986787,19.3494814 25.0239803,20.1074282 25.0239803,20.1074282 C25.0239803,20.1074282 25.1645902,19.0373777 25.2598984,17.5726197 C25.2925639,16.8413936 25.3021082,16.0021995 25.1707738,15.2000346 C25.1239934,14.7918989 24.9755869,14.4206569 24.8412951,14.0700319 C24.7849705,13.8833936 24.6600885,13.7477553 24.5836,13.5799707 L24.1680885,13.0748537 C24.0057016,12.8391144 23.8806852,12.7422686 23.6963869,12.3939495 Z"></path>
                                    </g>
                                </g>
                            </g>
                        </g>
                    </g>
                </g>
            </g>
        </g>
    </g>
</svg>