<?xml version="1.0" encoding="UTF-8"?>
<svg width="88px" height="88px" viewBox="0 0 88 88" version="1.1" xmlns="http://www.w3.org/2000/svg" xmlns:xlink="http://www.w3.org/1999/xlink">
    <!-- Generator: Sketch 52.6 (67491) - http://www.bohemiancoding.com/sketch -->
    <title>a2-5</title>
    <desc>Created with Sketch.</desc>
    <defs>
        <rect id="path-1" x="0" y="0" width="88" height="88" rx="8"></rect>
    </defs>
    <g id="folga_design" stroke="none" stroke-width="1" fill="none" fill-rule="evenodd">
        <g transform="translate(-244.000000, -1481.000000)" id="art2">
            <g transform="translate(160.000000, 1126.000000)">
                <g id="content" transform="translate(0.000000, 103.000000)">
                    <g id="5" transform="translate(0.000000, 228.000000)">
                        <g id="item" transform="translate(16.000000, 24.000000)">
                            <g id="a2-5" transform="translate(68.000000, 0.000000)">
                                <mask id="mask-2" fill="white">
                                    <use xlink:href="#path-1"></use>
                                </mask>
                                <use id="Rectangle" fill="#00E49E" fill-rule="nonzero" xlink:href="#path-1"></use>
                                <g id="flaticon1550582281-svg" mask="url(#mask-2)" fill="#143254" fill-rule="nonzero">
                                    <g transform="translate(21.000000, 20.000000)" id="Combined-Shape">
                                        <path d="M43.7632289,1.00865625 C45.7720542,3.004125 46.9408253,5.871 46.969988,8.87446875 C47.0016044,12.1654688 45.6548373,15.3330938 43.1775221,17.7939375 L19.3996747,41.4135938 L10.2281627,32.3031563 L42.7476325,1.0658141e-14 L43.7632289,1.00865625 Z M8.19706426,34.32075 L13.7982751,39.8847187 L6.78885743,46.8475312 C6.04082129,47.5907812 5.04617671,48 3.9882992,48 C2.93042169,48 1.93577711,47.5906875 1.18764659,46.847625 C-0.35665261,45.3134062 -0.356558233,42.8174062 1.18774096,41.2834687 L8.19706426,34.32075 Z"></path>
                                    </g>
                                </g>
                            </g>
                        </g>
                    </g>
                </g>
            </g>
        </g>
    </g>
</svg>