<?xml version="1.0" encoding="UTF-8"?>
<svg width="88px" height="88px" viewBox="0 0 88 88" version="1.1" xmlns="http://www.w3.org/2000/svg" xmlns:xlink="http://www.w3.org/1999/xlink">
    <!-- Generator: Sketch 52.6 (67491) - http://www.bohemiancoding.com/sketch -->
    <title>a2-6</title>
    <desc>Created with Sketch.</desc>
    <defs>
        <rect id="path-1" x="0" y="0" width="88" height="88" rx="8"></rect>
    </defs>
    <g id="folga_design" stroke="none" stroke-width="1" fill="none" fill-rule="evenodd">
        <g transform="translate(-532.000000, -1481.000000)" id="art2">
            <g transform="translate(160.000000, 1126.000000)">
                <g id="content" transform="translate(0.000000, 103.000000)">
                    <g id="6" transform="translate(288.000000, 228.000000)">
                        <g id="item" transform="translate(16.000000, 24.000000)">
                            <g id="a2-6" transform="translate(68.000000, 0.000000)">
                                <mask id="mask-2" fill="white">
                                    <use xlink:href="#path-1"></use>
                                </mask>
                                <use id="Rectangle" fill="#00E49E" fill-rule="nonzero" xlink:href="#path-1"></use>
                                <g id="flaticon1550582323-svg" mask="url(#mask-2)" fill="#143254" fill-rule="nonzero">
                                    <g transform="translate(22.000000, 24.000000)" id="Shape">
                                        <path d="M42.9904918,12.7553929 C43.8418033,11.6293571 44.299918,10.2895357 44.3154098,8.87942857 C44.332377,7.16914286 43.6603279,5.54451786 42.4231967,4.30426786 C41.104918,2.98201786 39.2584426,2.22425 37.357377,2.22425 L37.2563115,2.22498214 C34.3615574,2.26525 31.5,2.72064286 28.7498361,3.57798214 C28.3654918,3.69878571 27.9177049,3.57139286 27.5857377,3.24119643 C25.534918,1.20583929 22.8083607,0.0644285714 19.8767213,0.0263571429 C18.7207377,0.0263571429 17.7292623,0.828785714 17.5706557,1.89332143 C17.4762295,2.53101786 17.6636066,3.17457143 18.0848361,3.65778571 C18.5053279,4.141 19.1154098,4.41848214 19.7594262,4.41848214 C20.2839344,4.41848214 21.0341803,4.62348214 21.9282787,5.01298214 C22.2484426,5.15208929 22.4542623,5.44128571 22.4786066,5.786125 C22.5022131,6.12583929 22.3421311,6.43553571 22.05,6.61491071 C21.7342623,6.80966071 21.4222131,7.00807143 21.1138525,7.21380357 C20.2308197,7.80171429 19.1493443,8.03233929 18.0944262,7.85369643 C17.4909836,7.75192857 16.8772131,7.70067857 16.2715574,7.70067857 C13.3694262,7.70067857 10.627377,8.80841071 8.54852459,10.8196071 C7.68172131,11.6586429 7.56737705,12.9581964 8.28147541,13.842625 C8.70639344,14.3683036 9.33713115,14.6692143 10.0128689,14.6692143 C10.6812295,14.6692143 11.307541,14.3734286 11.7309836,13.8565357 C12.3521311,13.0995 13.0212295,12.6192143 13.7198361,12.4288571 C14.7518852,12.1484464 15.3442623,12.0598571 15.6784426,12.0408214 C15.3678689,12.5211071 14.6832787,13.2854643 14.2347541,13.7877143 C13.6172951,14.478125 12.9784426,15.1919643 12.5704918,15.8194107 C12.4303279,16.0353929 12.1677049,16.1561964 11.8372131,16.1620536 C11.5959836,16.1444821 11.352541,16.1342321 11.107623,16.1342321 C8.20696721,16.1342321 5.46713115,17.2405 3.38901639,19.2495 C2.54877049,20.0621786 2.41081967,21.335375 3.06590164,22.2095536 C3.49081967,22.7769643 4.14,23.1027679 4.84745902,23.1027679 C5.43909836,23.1027679 5.99532787,22.8736071 6.41213115,22.4592143 C6.87172131,22.0030893 7.77319672,21.5440357 9.01696721,21.1318393 C9.22278689,21.0630179 9.43155738,21.1398929 9.55254098,21.3126786 C9.6152459,21.4012679 9.675,21.5462321 9.60565574,21.7336607 C9.3452459,22.4416429 9.11065574,23.165 8.90704918,23.8846964 C8.70122951,24.6124464 8.12434426,25.1966964 7.34901639,25.4514821 C4.58778689,26.3637321 2.33409836,28.2804821 1.00401639,30.8503036 C0.475081967,31.872375 0.753934426,33.1133571 1.65172131,33.7364107 C2.03016393,33.9985179 2.47057377,34.1383571 2.92647541,34.1383571 C3.77114754,34.1383571 4.5295082,33.6727143 4.90721311,32.9251964 C5.28122951,32.1828036 6.3745082,31.7947679 7.26122951,31.7947679 C7.52163934,31.7947679 7.69868852,31.8291786 7.80122951,31.8606607 C7.85139344,34.3550714 8.80008197,36.2835357 10.4842623,37.3041429 C11.7560656,38.0750893 13.0854098,38.4653214 14.4368852,38.4653214 C16.6345082,38.4653214 18.687541,37.3876071 19.9268852,35.582875 C20.2522131,35.1099107 20.5318033,34.2803929 20.782623,33.0474643 C20.8851639,32.5452143 21.337377,32.2831071 21.7320492,32.2831071 C21.9039344,32.2831071 22.0684426,32.3277679 22.2196721,32.4163571 C24.2284426,33.5907143 25.4862295,35.7490714 25.502459,38.0509286 C25.5105738,39.1974643 26.3515574,40.1565714 27.4603279,40.2810357 C27.5459016,40.2905536 27.6307377,40.2956786 27.7155738,40.2956786 C28.9357377,40.2956786 29.9286885,39.3102143 29.9286885,38.09925 C29.9286885,33.1001786 26.5101639,28.7534464 21.7209836,27.4948929 C22.23,26.2905179 23.2922951,25.5444643 24.5640984,25.5444643 C25.1668033,25.5444643 25.7731967,25.7077321 26.3633607,26.0276786 C27.9317213,26.8798929 29.0663115,28.2841429 29.5583607,29.9834464 C29.8689344,31.0567679 30.9430328,31.7684107 32.0481148,31.5934286 C32.6736885,31.4923929 33.2262295,31.1329107 33.5640984,30.6057679 C33.9034426,30.078625 34.000082,29.4314107 33.8296721,28.8288571 C32.8713934,25.4485536 30.3056557,22.7081429 26.9645902,21.4971786 C26.5942623,21.3631964 26.3279508,21.048375 26.2504918,20.6552143 C26.1737705,20.2627857 26.2969672,19.8879286 26.6171311,19.603125 C26.767623,19.469875 26.947623,19.3805536 27.1246721,19.352 C27.4743443,19.295625 27.8291803,19.2670714 28.182541,19.2670714 C31.2108197,19.2670714 33.8540164,21.2980357 34.6086885,24.2068393 C34.8934426,25.2991964 35.9741803,26.0642857 37.0829508,25.8995536 C37.7040984,25.8102321 38.2595902,25.4639286 38.6070492,24.9492321 C38.9545082,24.4345357 39.067377,23.7946429 38.9168852,23.1935536 C38.2868852,20.6925536 36.7782787,18.4814821 34.6662295,16.968875 C34.2855738,16.6957857 34.3460656,16.2960357 34.3740984,16.1803571 C34.4006557,16.0676071 34.522377,15.6942143 34.9709016,15.6202679 C35.857623,15.4760357 36.7672131,15.4020893 37.684918,15.4020893 C38.017623,15.4020893 38.3045902,15.5221607 38.4705738,15.7322857 C39.3860656,16.8890714 39.8759016,18.2772143 39.8869672,19.7458929 C39.895082,20.8931607 40.7360656,21.8522679 41.8448361,21.9767321 C41.9304098,21.98625 42.0152459,21.991375 42.100082,21.991375 C42.6917213,21.991375 43.2472131,21.7622143 43.6647541,21.3478214 C44.0822951,20.9334286 44.3131967,20.382125 44.3131967,19.7949464 C44.3131967,17.9470179 43.8366393,16.1166607 42.9344262,14.5008214 C42.6098361,13.9151071 42.6304918,13.2305536 42.9904918,12.7553929 Z M14.0695082,35.900625 C12.4421311,35.900625 11.1186885,34.5871607 11.1186885,32.9720536 C11.1186885,31.3569464 12.4421311,30.0434821 14.0695082,30.0434821 C15.6968852,30.0434821 17.0203279,31.3569464 17.0203279,32.9720536 C17.0203279,34.5871607 15.6968852,35.900625 14.0695082,35.900625 Z M15.544918,27.8470536 C13.917541,27.8470536 12.5940984,26.5335893 12.5940984,24.9184821 C12.5940984,23.303375 13.917541,21.9899107 15.544918,21.9899107 C17.1722951,21.9899107 18.4957377,23.303375 18.4957377,24.9184821 C18.4957377,26.5335893 17.1722951,27.8470536 15.544918,27.8470536 Z M19.2334426,20.525625 C17.6060656,20.525625 16.282623,19.2121607 16.282623,17.5970536 C16.282623,15.9819464 17.6060656,14.6684821 19.2334426,14.6684821 C20.8608197,14.6684821 22.1842623,15.9819464 22.1842623,17.5970536 C22.1842623,19.2121607 20.8608197,20.525625 19.2334426,20.525625 Z M25.8727869,15.400625 C24.2454098,15.400625 22.9219672,14.0871607 22.9219672,12.4720536 C22.9219672,10.8569464 24.2454098,9.54348214 25.8727869,9.54348214 C27.5001639,9.54348214 28.8236066,10.8569464 28.8236066,12.4720536 C28.8236066,14.0871607 27.5001639,15.400625 25.8727869,15.400625 Z M33.987541,12.4720536 C32.3601639,12.4720536 31.0367213,11.1585893 31.0367213,9.54348214 C31.0367213,7.928375 32.3601639,6.61491071 33.987541,6.61491071 C35.614918,6.61491071 36.9383607,7.928375 36.9383607,9.54348214 C36.9383607,11.1585893 35.614918,12.4720536 33.987541,12.4720536 Z"></path>
                                    </g>
                                </g>
                            </g>
                        </g>
                    </g>
                </g>
            </g>
        </g>
    </g>
</svg>