<?xml version="1.0" encoding="UTF-8"?>
<svg width="88px" height="88px" viewBox="0 0 88 88" version="1.1" xmlns="http://www.w3.org/2000/svg" xmlns:xlink="http://www.w3.org/1999/xlink">
    <!-- Generator: Sketch 52.6 (67491) - http://www.bohemiancoding.com/sketch -->
    <title>a2-7</title>
    <desc>Created with Sketch.</desc>
    <defs>
        <rect id="path-1" x="0" y="0" width="88" height="88" rx="8"></rect>
    </defs>
    <g id="folga_design" stroke="none" stroke-width="1" fill="none" fill-rule="evenodd">
        <g transform="translate(-820.000000, -1481.000000)" id="art2">
            <g transform="translate(160.000000, 1126.000000)">
                <g id="content" transform="translate(0.000000, 103.000000)">
                    <g id="7" transform="translate(576.000000, 228.000000)">
                        <g id="item" transform="translate(16.000000, 24.000000)">
                            <g id="a2-7" transform="translate(68.000000, 0.000000)">
                                <mask id="mask-2" fill="white">
                                    <use xlink:href="#path-1"></use>
                                </mask>
                                <use id="Rectangle" fill="#00E49E" fill-rule="nonzero" xlink:href="#path-1"></use>
                                <g id="flaticon1550582385-svg" mask="url(#mask-2)">
                                    <g transform="translate(43.815699, 43.802559) rotate(-300.000000) translate(-43.815699, -43.802559) translate(21.815699, 16.302559)">
                                        <path d="M43.2527232,44.098783 C44.889941,40.9791155 42.7777627,38.7120593 42.7777627,38.7120593 C45.2933057,35.0195897 41.9970292,32.1052703 41.9970292,32.1052703 C43.0379362,26.1852954 38.7874771,23.7429498 38.7874771,23.7429498 C38.6140282,19.6794402 35.2309206,18.0551121 35.2309206,18.0551121 C35.2309206,18.0551121 37.3994591,13.9809502 35.2309206,10.5460358 C33.0623821,7.11122692 29.2454389,7.22418422 29.2454389,7.22418422 C29.2454389,7.22418422 27.684185,0.241398201 22.6530989,0.413207201 C17.6220129,0.5850162 15.6268168,7.66894699 15.6268168,7.66894699 C9.90172172,9.94422971 12.2437092,16.2136234 10.6823487,18.0551121 C9.12098819,19.8967063 9.64133515,22.4822788 9.64133515,22.4822788 C6.51850759,24.5432486 7.64613909,28.4503476 7.64613909,28.4503476 C2.26804853,30.811904 3.742578,36.638117 3.742578,36.638117 C-0.160983083,38.7719657 1.05347945,43.8643254 1.05347945,43.8643254 C1.05347945,43.8643254 2.71189895,48.1119839 9.02691236,48.8064972 C9.02691236,48.8064972 10.8980945,51.3533626 14.094542,50.581646 C14.094542,50.581646 16.74454,54.9036601 23.6446774,54.3633424 C23.6446774,54.3633424 29.3753126,54.5176435 32.4938785,50.4271339 C32.4938785,50.4271339 36.2361363,50.9059631 38.0292238,47.5794709 C38.0292238,47.5796819 41.443761,47.5455099 43.2527232,44.098783 Z" id="Path" fill="#143254" fill-rule="nonzero"></path>
                                        <g id="Group" stroke-width="1" fill="none" fill-rule="evenodd" transform="translate(6.392754, 4.843101)">
                                            <path d="M9.32589474,17.7846295 C9.26526316,17.7846295 9.20357895,17.7781308 9.14178947,17.7646005 C8.67410526,17.6620048 8.37694737,17.1952639 8.47821053,16.7219177 C8.96389474,14.4512833 10.5171579,13.5562615 11.7602105,13.3005714 C11.6994737,10.6602518 13.5314737,9.39938015 14.6184211,9.08914286 C15.0783158,8.95788862 15.5576842,9.22902663 15.6876842,9.6953414 C15.8169474,10.1592058 15.5521053,10.6412881 15.0955789,10.7755254 C14.8864211,10.8403002 13.124,11.4629056 13.564,13.9439516 C13.6113684,14.2101889 13.5344211,14.4835642 13.3558947,14.6849201 C13.1773684,14.8861695 12.9157895,14.9932397 12.6505263,14.9738499 C12.4530526,14.9640484 10.6350526,14.9299564 10.1722105,17.0929879 C10.0841053,17.5039031 9.72515789,17.7846295 9.32589474,17.7846295 Z" id="Path" fill="#00E49E"></path>
                                            <path d="M24.71,29.0282809 C24.6994737,29.0282809 24.6890526,29.0280678 24.6786316,29.0277482 C24.2003158,29.0105956 23.8263158,28.604155 23.8434737,28.1200484 C23.8685263,27.4055012 23.7024211,26.849908 23.3496842,26.4688232 C22.7965263,25.8712542 21.9131579,25.8186247 21.9045263,25.8184116 C21.648,25.8106344 21.408,25.6883293 21.2493684,25.4843099 C21.0906316,25.280184 21.0293684,25.0154383 21.0821053,24.7613462 C21.5662105,22.4312639 19.7568421,21.5004455 19.5488421,21.4020048 C19.1122105,21.2034189 18.9204211,20.68554 19.1167368,20.2437288 C19.3129474,19.8017046 19.8291579,19.6062082 20.2652632,19.8046877 C21.2906316,20.2712155 23.0021053,21.751661 22.8922105,24.2282324 C23.418,24.3830315 24.0724211,24.684 24.6144211,25.2695303 C25.2943158,26.004 25.6174737,26.9839322 25.5754737,28.1823729 C25.5588421,28.6557191 25.1743158,29.0282809 24.71,29.0282809 Z" id="Path" fill="#00E49E"></path>
                                            <path d="M7.05578947,32.0269927 C6.65905263,32.0270993 6.30126316,31.7496755 6.21094737,31.3414237 C5.63789474,28.7514964 7.11968421,27.27446 8.30126316,26.6789153 C8.85884211,23.968707 11.1115789,23.4772494 11.2128421,23.4565811 L11.5554737,25.1760969 L11.5669474,25.1736465 C11.4222105,25.2075254 10.1475789,25.558247 9.94094737,27.4004939 C9.90231579,27.7451429 9.66652632,28.0343923 9.33947368,28.1382663 C9.33968421,28.1382663 8.81863158,28.3172494 8.38989474,28.7661985 C7.85842105,29.3226441 7.69873684,30.0396416 7.902,30.9582082 C8.00663158,31.4309153 7.71273684,31.8997869 7.24578947,32.0056852 C7.18210526,32.0200678 7.11852632,32.0269927 7.05578947,32.0269927 Z" id="Path" fill="#00E49E"></path>
                                            <ellipse id="Oval" fill="#00E49E" cx="1.41515789" cy="37.1301404" rx="1.39936842" ry="1.41630993"></ellipse>
                                            <ellipse id="Oval" fill="#00E49E" cx="23.3675789" cy="9.06410654" rx="1.39936842" ry="1.41630993"></ellipse>
                                            <path d="M11.3848421,6.56228571 C11.3166316,6.56228571 11.2471579,6.55397579 11.1778947,6.53682324 C10.7130526,6.42154964 10.4286316,5.94660533 10.5425263,5.47624213 C11.6504211,0.902053269 15.7221053,0.0858692494 15.8949474,0.0533753027 C16.3644211,-0.0355835351 16.8178947,0.279128329 16.9052632,0.75535109 C16.9924211,1.2302954 16.6837895,1.68691525 16.2154737,1.77725908 C16.0795789,1.80442615 13.0606316,2.44748668 12.2258947,5.89397579 C12.1289474,6.29413075 11.7747368,6.56228571 11.3848421,6.56228571 Z" id="Path" fill="#00E49E"></path>
                                            <path d="M16.2183158,43.9051816 C15.6413684,43.9051816 15.0874737,43.8144116 14.5585263,43.6326586 C12.9856842,43.0920872 12.1004211,41.8855496 11.7347368,41.2677385 C8.10715789,40.0362712 7.50326316,36.2328814 7.47863158,36.0664697 C7.40768421,35.587477 7.734,35.1408717 8.20726316,35.0691719 C8.67905263,34.9980048 9.11978947,35.3260339 9.19221053,35.8034286 C9.21273684,35.9343632 9.71105263,38.9014334 12.5547368,39.6873608 C12.8055789,39.7566102 13.0123158,39.936339 13.1182105,40.1766877 C13.122,40.1849976 13.7386316,41.5087264 15.1354737,41.9784504 C16.2484211,42.3526102 17.5942105,42.1125811 19.1363158,41.2652881 C19.5570526,41.0338886 20.0830526,41.1919903 20.3113684,41.6177143 C20.5396842,42.0434383 20.3837895,42.5759128 19.9631579,42.8068862 C18.6316842,43.5382663 17.3784211,43.9050751 16.2183158,43.9051816 Z" id="Path" fill="#00E49E"></path>
                                            <path d="M24.3726316,39.7961356 C24.0352632,39.7961356 23.7145263,39.5955254 23.5746316,39.2612107 C23.3888421,38.8180145 23.5909474,38.3067409 24.026,38.1148668 C24.1397895,38.0623438 26.3978947,36.9639419 26.2028421,32.9545085 C26.1793684,32.4707215 26.5477895,32.0591671 27.0257895,32.0354092 C27.5058947,32.0111186 27.9105263,32.3845327 27.934,32.8683196 C28.1917895,38.1700533 24.8530526,39.6653075 24.7108421,39.7263535 C24.6003158,39.7736562 24.4854737,39.7961356 24.3726316,39.7961356 Z" id="Path" fill="#00E49E"></path>
                                        </g>
                                    </g>
                                </g>
                            </g>
                        </g>
                    </g>
                </g>
            </g>
        </g>
    </g>
</svg>