<?xml version="1.0" encoding="UTF-8"?>
<svg width="164px" height="164px" viewBox="0 0 164 164" version="1.1" xmlns="http://www.w3.org/2000/svg" xmlns:xlink="http://www.w3.org/1999/xlink">
    <!-- Generator: Sketch 52.6 (67491) - http://www.bohemiancoding.com/sketch -->
    <title>a4-label</title>
    <desc>Created with Sketch.</desc>
    <g id="folga_design" stroke="none" stroke-width="1" fill="none" fill-rule="evenodd">
        <g transform="translate(-208.000000, -2600.000000)" id="art4">
            <g transform="translate(0.000000, 2392.000000)">
                <g id="a4-label" transform="translate(208.000000, 208.000000)">
                    <circle id="Oval" fill="#FFFFFF" fill-rule="nonzero" cx="82" cy="82" r="82"></circle>
                    <g id="flaticon1550589079-svg" transform="translate(66.000000, 38.000000)">
                        <circle id="Oval" fill="#F0F0F0" cx="16" cy="16" r="16"></circle>
                        <g id="Group" transform="translate(0.500000, 3.437500)" fill="#D80027">
                            <path d="M14.804375,12.5625 L31.5,12.5625 C31.5,11.118375 31.3075,9.719375 30.9488125,8.3885625 L14.804375,8.3885625 L14.804375,12.5625 Z" id="Path"></path>
                            <path d="M14.804375,4.2146875 L29.151625,4.2146875 C28.1721875,2.6164375 26.919875,1.20375 25.45975,0.04075 L14.804375,0.04075 L14.804375,4.2146875 Z" id="Path"></path>
                            <path d="M15.5,28.5625 C19.2655625,28.5625 22.726625,27.261 25.45975,25.08425 L5.54025,25.08425 C8.273375,27.261 11.7344375,28.5625 15.5,28.5625 Z" id="Path"></path>
                            <path d="M1.848375,20.9103125 L29.151625,20.9103125 C29.9379375,19.62725 30.54775,18.22475 30.9488125,16.736375 L0.0511875,16.736375 C0.45225,18.22475 1.0620625,19.62725 1.848375,20.9103125 Z" id="Path"></path>
                        </g>
                        <path d="M7.4115,2.498625 L8.8695625,2.498625 L7.5133125,3.4839375 L8.031375,5.07825 L6.6751875,4.0929375 L5.319,5.07825 L5.7665,3.7009375 C4.572375,4.695625 3.52575,5.861 2.66325,7.1595 L3.1304375,7.1595 L2.267125,7.7866875 C2.132625,8.0110625 2.003625,8.239 1.88,8.4703125 L2.29225,9.739125 L1.523125,9.1803125 C1.3319375,9.585375 1.1570625,9.9995625 0.999875,10.422375 L1.4540625,11.820375 L3.1304375,11.820375 L1.7741875,12.8056875 L2.29225,14.4 L0.9360625,13.4146875 L0.1236875,14.0049375 C0.042375,14.6585625 0,15.3243125 0,16 L16,16 C16,7.1635 16,6.12175 16,0 C12.83925,0 9.8928125,0.916875 7.4115,2.498625 Z M8.031375,14.4 L6.6751875,13.4146875 L5.319,14.4 L5.8370625,12.8056875 L4.4808125,11.820375 L6.1571875,11.820375 L6.6751875,10.2260625 L7.1931875,11.820375 L8.8695625,11.820375 L7.5133125,12.8056875 L8.031375,14.4 Z M7.5133125,8.1448125 L8.031375,9.739125 L6.6751875,8.7538125 L5.319,9.739125 L5.8370625,8.1448125 L4.4808125,7.1595 L6.1571875,7.1595 L6.6751875,5.5651875 L7.1931875,7.1595 L8.8695625,7.1595 L7.5133125,8.1448125 Z M13.7705,14.4 L12.4143125,13.4146875 L11.058125,14.4 L11.5761875,12.8056875 L10.2199375,11.820375 L11.8963125,11.820375 L12.4143125,10.2260625 L12.9323125,11.820375 L14.6086875,11.820375 L13.2524375,12.8056875 L13.7705,14.4 Z M13.2524375,8.1448125 L13.7705,9.739125 L12.4143125,8.7538125 L11.058125,9.739125 L11.5761875,8.1448125 L10.2199375,7.1595 L11.8963125,7.1595 L12.4143125,5.5651875 L12.9323125,7.1595 L14.6086875,7.1595 L13.2524375,8.1448125 Z M13.2524375,3.4839375 L13.7705,5.07825 L12.4143125,4.0929375 L11.058125,5.07825 L11.5761875,3.4839375 L10.2199375,2.498625 L11.8963125,2.498625 L12.4143125,0.9043125 L12.9323125,2.498625 L14.6086875,2.498625 L13.2524375,3.4839375 Z" id="Shape" fill="#0052B4" fill-rule="nonzero"></path>
                    </g>
                    <path d="M34.416,103 L33.744,100.984 L29.28,100.984 L28.608,103 L26.224,103 L30.144,91.8 L32.88,91.8 L36.816,103 L34.416,103 Z M29.984,98.92 L33.056,98.92 L31.52,94.344 L29.984,98.92 Z M46.128,95 L46.128,103 L44.128,103 L44.128,98.328 L42.096,101.528 L41.84,101.528 L39.792,98.296 L39.792,103 L37.808,103 L37.808,95 L39.84,95 L41.968,98.36 L44.096,95 L46.128,95 Z M49.76,99.848 C50.0373347,100.850672 50.7893272,101.352 52.016,101.352 C52.8053373,101.352 53.4026646,101.085336 53.808,100.552 L55.472,101.512 C54.6826627,102.653339 53.5200077,103.224 51.984,103.224 C50.6613267,103.224 49.600004,102.824004 48.8,102.024 C47.999996,101.223996 47.6,100.216006 47.6,99 C47.6,97.7946606 47.9946627,96.7893374 48.784,95.984 C49.5733373,95.1786626 50.5866605,94.776 51.824,94.776 C52.9973392,94.776 53.9653295,95.1813293 54.728,95.992 C55.4906705,96.8026707 55.872,97.8053274 55.872,99 C55.872,99.266668 55.8453336,99.5493318 55.792,99.848 L49.76,99.848 Z M49.728,98.248 L53.808,98.248 C53.6906661,97.7039973 53.4480018,97.298668 53.08,97.032 C52.7119982,96.765332 52.2933357,96.632 51.824,96.632 C51.2693306,96.632 50.8106685,96.7733319 50.448,97.056 C50.0853315,97.3386681 49.8453339,97.7359974 49.728,98.248 Z M61.968,94.776 C63.0453387,94.776 63.9653295,95.1839959 64.728,96 C65.4906705,96.8160041 65.872,97.8159941 65.872,99 C65.872,100.184006 65.4906705,101.183996 64.728,102 C63.9653295,102.816004 63.0453387,103.224 61.968,103.224 C60.8479944,103.224 59.984003,102.834671 59.376,102.056 L59.376,106.2 L57.312,106.2 L57.312,95 L59.376,95 L59.376,95.944 C59.984003,95.1653294 60.8479944,94.776 61.968,94.776 Z M60,100.632 C60.4160021,101.048002 60.9439968,101.256 61.584,101.256 C62.2240032,101.256 62.7546646,101.045335 63.176,100.624 C63.5973354,100.202665 63.808,99.6613366 63.808,99 C63.808,98.3386634 63.5973354,97.7973354 63.176,97.376 C62.7546646,96.9546646 62.2240032,96.744 61.584,96.744 C60.9439968,96.744 60.4160021,96.9546646 60,97.376 C59.5839979,97.7973354 59.376,98.3386634 59.376,99 C59.376,99.6613366 59.5839979,100.205331 60,100.632 Z M73.104,95 L74.64,95 L74.64,103 L72.624,103 L72.624,98.456 L68.864,103 L67.328,103 L67.328,95 L69.344,95 L69.344,99.544 L73.104,95 Z M83.904,103 L81.504,103 L78.592,99.368 L78.592,103 L76.528,103 L76.528,95 L78.592,95 L78.592,98.52 L81.344,95 L83.808,95 L80.592,98.952 L83.904,103 Z M90.432,95 L92.496,95 L92.496,103 L90.432,103 L90.432,102.056 C89.8133302,102.834671 88.9440056,103.224 87.824,103.224 C86.757328,103.224 85.8426705,102.816004 85.08,102 C84.3173295,101.183996 83.936,100.184006 83.936,99 C83.936,97.8159941 84.3173295,96.8160041 85.08,96 C85.8426705,95.1839959 86.757328,94.776 87.824,94.776 C88.9440056,94.776 89.8133302,95.1653294 90.432,95.944 L90.432,95 Z M86.624,100.632 C87.0400021,101.048002 87.5679968,101.256 88.208,101.256 C88.8480032,101.256 89.3786646,101.045335 89.8,100.624 C90.2213354,100.202665 90.432,99.6613366 90.432,99 C90.432,98.3386634 90.2213354,97.7973354 89.8,97.376 C89.3786646,96.9546646 88.8480032,96.744 88.208,96.744 C87.5679968,96.744 87.0400021,96.9546646 86.624,97.376 C86.2079979,97.7973354 86,98.3386634 86,99 C86,99.6613366 86.2079979,100.205331 86.624,100.632 Z M99.616,95 L101.68,95 L101.68,103 L99.616,103 L99.616,99.96 L96.432,99.96 L96.432,103 L94.368,103 L94.368,95 L96.432,95 L96.432,98.024 L99.616,98.024 L99.616,95 Z M107.376,103.224 C106.170661,103.224 105.165337,102.818671 104.36,102.008 C103.554663,101.197329 103.152,100.194673 103.152,99 C103.152,97.8053274 103.554663,96.8026707 104.36,95.992 C105.165337,95.1813293 106.170661,94.776 107.376,94.776 C108.154671,94.776 108.863997,94.9626648 109.504,95.336 C110.144003,95.7093352 110.629332,96.2106635 110.96,96.84 L109.184,97.88 C109.023999,97.5493317 108.781335,97.288001 108.456,97.096 C108.130665,96.903999 107.765335,96.808 107.36,96.808 C106.74133,96.808 106.229335,97.0133313 105.824,97.424 C105.418665,97.8346687 105.216,98.3599968 105.216,99 C105.216,99.6293365 105.418665,100.149331 105.824,100.56 C106.229335,100.970669 106.74133,101.176 107.36,101.176 C107.776002,101.176 108.146665,101.082668 108.472,100.896 C108.797335,100.709332 109.039999,100.450668 109.2,100.12 L110.992,101.144 C110.639998,101.773336 110.144003,102.277331 109.504,102.656 C108.863997,103.034669 108.154671,103.224 107.376,103.224 Z M119.52,103 L117.12,103 L114.208,99.368 L114.208,103 L112.144,103 L112.144,95 L114.208,95 L114.208,98.52 L116.96,95 L119.424,95 L116.208,98.952 L119.52,103 Z M126.784,102.008 C125.962663,102.818671 124.960006,103.224 123.776,103.224 C122.591994,103.224 121.592004,102.816004 120.776,102 C119.959996,101.183996 119.552,100.184006 119.552,99 C119.552,97.8159941 119.959996,96.8160041 120.776,96 C121.592004,95.1839959 122.591994,94.776 123.776,94.776 C124.960006,94.776 125.962663,95.1839959 126.784,96 C127.605337,96.8160041 128.016,97.8159941 128.016,99 C128.016,100.184006 127.605337,101.186663 126.784,102.008 Z M122.224,100.584 C122.640002,101.000002 123.15733,101.208 123.776,101.208 C124.39467,101.208 124.911998,101.000002 125.328,100.584 C125.744002,100.167998 125.952,99.6400032 125.952,99 C125.952,98.3599968 125.744002,97.8320021 125.328,97.416 C124.911998,96.9999979 124.39467,96.792 123.776,96.792 C123.15733,96.792 122.642669,96.9999979 122.232,97.416 C121.821331,97.8320021 121.616,98.3599968 121.616,99 C121.616,99.6400032 121.818665,100.167998 122.224,100.584 Z M131.216,99.848 C131.493335,100.850672 132.245327,101.352 133.472,101.352 C134.261337,101.352 134.858665,101.085336 135.264,100.552 L136.928,101.512 C136.138663,102.653339 134.976008,103.224 133.44,103.224 C132.117327,103.224 131.056004,102.824004 130.256,102.024 C129.455996,101.223996 129.056,100.216006 129.056,99 C129.056,97.7946606 129.450663,96.7893374 130.24,95.984 C131.029337,95.1786626 132.04266,94.776 133.28,94.776 C134.453339,94.776 135.42133,95.1813293 136.184,95.992 C136.94667,96.8026707 137.328,97.8053274 137.328,99 C137.328,99.266668 137.301334,99.5493318 137.248,99.848 L131.216,99.848 Z M131.184,98.248 L135.264,98.248 C135.146666,97.7039973 134.904002,97.298668 134.536,97.032 C134.167998,96.765332 133.749336,96.632 133.28,96.632 C132.725331,96.632 132.266668,96.7733319 131.904,97.056 C131.541332,97.3386681 131.301334,97.7359974 131.184,98.248 Z M55.68,122 L53.28,122 L50.368,118.368 L50.368,122 L48.304,122 L48.304,114 L50.368,114 L50.368,117.52 L53.12,114 L55.584,114 L52.368,117.952 L55.68,122 Z M62.208,114 L64.272,114 L64.272,122 L62.208,122 L62.208,121.056 C61.5893302,121.834671 60.7200056,122.224 59.6,122.224 C58.533328,122.224 57.6186705,121.816004 56.856,121 C56.0933295,120.183996 55.712,119.184006 55.712,118 C55.712,116.815994 56.0933295,115.816004 56.856,115 C57.6186705,114.183996 58.533328,113.776 59.6,113.776 C60.7200056,113.776 61.5893302,114.165329 62.208,114.944 L62.208,114 Z M58.4,119.632 C58.8160021,120.048002 59.3439968,120.256 59.984,120.256 C60.6240032,120.256 61.1546646,120.045335 61.576,119.624 C61.9973354,119.202665 62.208,118.661337 62.208,118 C62.208,117.338663 61.9973354,116.797335 61.576,116.376 C61.1546646,115.954665 60.6240032,115.744 59.984,115.744 C59.3439968,115.744 58.8160021,115.954665 58.4,116.376 C57.9839979,116.797335 57.776,117.338663 57.776,118 C57.776,118.661337 57.9839979,119.205331 58.4,119.632 Z M70.864,114 L72.928,114 L72.928,122 L70.864,122 L70.864,119.456 C70.2666637,119.648001 69.6320034,119.744 68.96,119.744 C67.9893285,119.744 67.2133362,119.498669 66.632,119.008 C66.0506638,118.517331 65.76,117.802671 65.76,116.864 L65.76,114 L67.824,114 L67.824,116.624 C67.824,117.424004 68.319995,117.824 69.312,117.824 C69.8880029,117.824 70.405331,117.722668 70.864,117.52 L70.864,114 Z M76.544,118.848 C76.8213347,119.850672 77.5733272,120.352 78.8,120.352 C79.5893373,120.352 80.1866646,120.085336 80.592,119.552 L82.256,120.512 C81.4666627,121.653339 80.3040077,122.224 78.768,122.224 C77.4453267,122.224 76.384004,121.824004 75.584,121.024 C74.783996,120.223996 74.384,119.216006 74.384,118 C74.384,116.794661 74.7786627,115.789337 75.568,114.984 C76.3573373,114.178663 77.3706605,113.776 78.608,113.776 C79.7813392,113.776 80.7493295,114.181329 81.512,114.992 C82.2746705,115.802671 82.656,116.805327 82.656,118 C82.656,118.266668 82.6293336,118.549332 82.576,118.848 L76.544,118.848 Z M76.512,117.248 L80.592,117.248 C80.4746661,116.703997 80.2320018,116.298668 79.864,116.032 C79.4959982,115.765332 79.0773357,115.632 78.608,115.632 C78.0533306,115.632 77.5946685,115.773332 77.232,116.056 C76.8693315,116.338668 76.6293339,116.735997 76.512,117.248 Z M87.84,122.224 C86.6346606,122.224 85.6293374,121.818671 84.824,121.008 C84.0186626,120.197329 83.616,119.194673 83.616,118 C83.616,116.805327 84.0186626,115.802671 84.824,114.992 C85.6293374,114.181329 86.6346606,113.776 87.84,113.776 C88.6186706,113.776 89.3279968,113.962665 89.968,114.336 C90.6080032,114.709335 91.0933317,115.210664 91.424,115.84 L89.648,116.88 C89.4879992,116.549332 89.245335,116.288001 88.92,116.096 C88.594665,115.903999 88.2293354,115.808 87.824,115.808 C87.2053302,115.808 86.6933354,116.013331 86.288,116.424 C85.8826646,116.834669 85.68,117.359997 85.68,118 C85.68,118.629336 85.8826646,119.149331 86.288,119.56 C86.6933354,119.970669 87.2053302,120.176 87.824,120.176 C88.2400021,120.176 88.610665,120.082668 88.936,119.896 C89.261335,119.709332 89.5039992,119.450668 89.664,119.12 L91.456,120.144 C91.1039982,120.773336 90.6080032,121.277331 89.968,121.656 C89.3279968,122.034669 88.6186706,122.224 87.84,122.224 Z M98.8,114 L98.8,115.984 L96.304,115.984 L96.304,122 L94.24,122 L94.24,115.984 L91.712,115.984 L91.712,114 L98.8,114 Z M105.664,117.904 C106.41067,118.266668 106.784,118.874662 106.784,119.728 C106.784,120.400003 106.552002,120.946665 106.088,121.368 C105.623998,121.789335 104.965338,122 104.112,122 L99.904,122 L99.904,114 L103.792,114 C104.634671,114 105.287998,114.207998 105.752,114.624 C106.216002,115.040002 106.448,115.583997 106.448,116.256 C106.448,116.960004 106.186669,117.509331 105.664,117.904 Z M103.6,115.696 L101.84,115.696 L101.84,117.136 L103.6,117.136 C104.18667,117.136 104.48,116.896002 104.48,116.416 C104.48,115.935998 104.18667,115.696 103.6,115.696 Z M103.872,120.256 C104.469336,120.256 104.768,120.000003 104.768,119.488 C104.768,119.263999 104.688001,119.088001 104.528,118.96 C104.367999,118.831999 104.149335,118.768 103.872,118.768 L101.84,118.768 L101.84,120.256 L103.872,120.256 Z M114.896,121.008 C114.074663,121.818671 113.072006,122.224 111.888,122.224 C110.703994,122.224 109.704004,121.816004 108.888,121 C108.071996,120.183996 107.664,119.184006 107.664,118 C107.664,116.815994 108.071996,115.816004 108.888,115 C109.704004,114.183996 110.703994,113.776 111.888,113.776 C113.072006,113.776 114.074663,114.183996 114.896,115 C115.717337,115.816004 116.128,116.815994 116.128,118 C116.128,119.184006 115.717337,120.186663 114.896,121.008 Z M110.336,119.584 C110.752002,120.000002 111.26933,120.208 111.888,120.208 C112.50667,120.208 113.023998,120.000002 113.44,119.584 C113.856002,119.167998 114.064,118.640003 114.064,118 C114.064,117.359997 113.856002,116.832002 113.44,116.416 C113.023998,115.999998 112.50667,115.792 111.888,115.792 C111.26933,115.792 110.754669,115.999998 110.344,116.416 C109.933331,116.832002 109.728,117.359997 109.728,118 C109.728,118.640003 109.930665,119.167998 110.336,119.584 Z" id="Американское-качеств" fill="#143254"></path>
                </g>
            </g>
        </g>
    </g>
</svg>