<?xml version="1.0" encoding="UTF-8"?>
<svg width="25px" height="24px" viewBox="0 0 25 24" version="1.1" xmlns="http://www.w3.org/2000/svg" xmlns:xlink="http://www.w3.org/1999/xlink">
    <!-- Generator: Sketch 52.6 (67491) - http://www.bohemiancoding.com/sketch -->
    <title>check</title>
    <desc>Created with Sketch.</desc>
    <g id="folga_design" stroke="none" stroke-width="1" fill="none" fill-rule="evenodd">
        <g transform="translate(-1024.000000, -355.000000)" fill="#00E49E" fill-rule="nonzero" id="header">
            <g transform="translate(-1.000000, 0.000000)">
                <g id="✅-header">
                    <g id="Stacked-Group" transform="translate(1025.000000, 345.000000)">
                        <g id="li-copy-7">
                            <g id="check" transform="translate(0.000000, 10.000000)">
                                <path d="M22.8958496,9.97244082 C23.4536133,9.97244082 23.9057129,10.4259918 23.9057129,10.9854857 L23.9057129,12.0063184 C23.9038574,15.2094857 22.6588379,18.2197224 20.3999512,20.4830204 C18.1428223,22.7445551 15.1429199,23.9899592 11.9530273,23.9899592 C11.9504883,23.9899592 11.9484863,23.9899592 11.9459961,23.9899592 C8.75327148,23.988098 5.75239258,22.7392163 3.49604492,20.4733224 C1.23969727,18.2074286 -0.00180664062,15.1957714 1.26050969e-13,11.9931918 C0.00185546875,8.79051429 1.246875,5.78027755 3.50576172,3.51702857 C5.76289063,1.25554286 8.76279297,0.0100897959 11.9526855,0.0100897959 C11.9552246,0.0100897959 11.9571777,0.0100897959 11.9597168,0.0100897959 C13.6444336,0.0110204082 15.2788574,0.360244898 16.8177246,1.04806531 C17.3271973,1.27582041 17.5561035,1.8746449 17.3291504,2.38564898 C17.1020996,2.89665306 16.5052734,3.12641633 15.9957031,2.89866122 C14.7168945,2.32711837 13.3585938,2.03686531 11.9585938,2.03608163 C11.9566406,2.03608163 11.9546875,2.03608163 11.9527344,2.03608163 C9.30170898,2.03608163 6.80898438,3.07092245 4.9331543,4.95036735 C3.0559082,6.83128163 2.02124023,9.33286531 2.01972656,11.9942694 C2.01660156,17.4884571 6.47001953,21.9607347 11.947168,21.9638694 C11.9491211,21.9638694 11.9510742,21.9638694 11.9530273,21.9638694 C14.6041016,21.9638694 17.0967773,20.9290286 18.9726074,19.0495837 C20.8498047,17.1687673 21.8844727,14.6671837 21.8859863,12.0057306 L21.8859863,10.9854367 C21.8859863,10.4259918 22.3380859,9.97244082 22.8958496,9.97244082 Z M24.7041992,1.41075918 C25.098584,1.80636735 25.098584,2.4477551 24.7041992,2.84336327 L12.667041,14.9179592 C12.4698242,15.1157878 12.211377,15.2146776 11.9529297,15.2146776 C11.6944824,15.2146776 11.4359863,15.1157878 11.2388184,14.9179592 L7.9559082,11.6248653 C7.56152344,11.2292571 7.56152344,10.5878694 7.9559082,10.1922612 C8.35024414,9.79665306 8.98969727,9.79665306 9.3840332,10.1922612 L11.952832,12.7690286 L23.2760254,1.41075918 C23.6704102,1.0152 24.3098145,1.0152 24.7041992,1.41075918 Z" id="Combined-Shape"></path>
                            </g>
                        </g>
                    </g>
                </g>
            </g>
        </g>
    </g>
</svg>