<?xml version="1.0" encoding="UTF-8"?>
<svg width="88px" height="88px" viewBox="0 0 88 88" version="1.1" xmlns="http://www.w3.org/2000/svg" xmlns:xlink="http://www.w3.org/1999/xlink">
    <!-- Generator: Sketch 52.6 (67491) - http://www.bohemiancoding.com/sketch -->
    <title>spep-3</title>
    <desc>Created with Sketch.</desc>
    <defs>
        <rect id="path-1" x="0" y="0" width="88" height="88" rx="8"></rect>
    </defs>
    <g id="folga_design" stroke="none" stroke-width="1" fill="none" fill-rule="evenodd">
        <g transform="translate(-814.000000, -6709.000000)" id="art11">
            <g transform="translate(154.000000, 6582.000000)">
                <g id="content" transform="translate(0.000000, 103.000000)">
                    <g id="3" transform="translate(576.000000, 0.000000)">
                        <g id="item" transform="translate(16.000000, 24.000000)">
                            <g id="spep-3" transform="translate(68.000000, 0.000000)">
                                <mask id="mask-2" fill="white">
                                    <use xlink:href="#path-1"></use>
                                </mask>
                                <use id="Rectangle" fill="#00E49E" fill-rule="nonzero" xlink:href="#path-1"></use>
                                <g id="flaticon1550590402-svg" mask="url(#mask-2)" fill="#143254" fill-rule="nonzero">
                                    <g transform="translate(17.000000, 24.000000)" id="Shape">
                                        <path d="M53.7826157,11.8898734 L49.7508102,11.8898734 C49.4437269,11.8898734 49.1486111,12.0078481 48.926956,12.2189873 L48.0663079,13.0387342 C46.6155556,9.70126582 44.5343403,6.40088608 41.7232292,2.98405063 C40.2035995,1.1378481 37.9564931,0.0791139241 35.5573727,0.0791139241 L19.4156366,0.0791139241 C17.0162616,0.0791139241 14.7690278,1.13797468 13.2502894,2.98417722 C10.3504398,6.50848101 8.31060185,9.72936709 6.89422454,13.026962 L6.04630787,12.2189873 C5.82465278,12.0078481 5.52940972,11.8898734 5.22232639,11.8898734 L1.19077546,11.8898734 C0.53306713,11.8898734 0,12.4198734 0,13.0737975 L0,15.8144304 C0,16.4393671 0.488634259,16.9564557 1.11591435,16.9959494 L5.25988426,17.255443 C4.63375,19.074557 4.14486111,21.7853165 4.14486111,25.6082278 C4.14486111,28.9253165 4.81122685,31.105443 5.9709375,32.5168354 L5.9709375,38.9027848 C5.9709375,39.4503797 6.41743056,39.8941772 6.96819444,39.8941772 L11.5552199,39.8941772 C12.1062384,39.8941772 12.5528588,39.4503797 12.5528588,38.9027848 L12.5528588,34.9372152 L42.4204051,34.9372152 L42.4204051,38.9027848 C42.4204051,39.4503797 42.8670255,39.8941772 43.4177894,39.8941772 L48.0048148,39.8941772 C48.5555787,39.8941772 49.0021991,39.4503797 49.0021991,38.9027848 L49.0021991,32.5168354 C50.1616551,31.105443 50.8284028,28.9253165 50.8284028,25.6082278 C50.8284028,21.7853165 50.3395139,19.074557 49.7133796,17.255443 L53.8573495,16.9959494 C54.4845023,16.9564557 54.9731366,16.4393671 54.9731366,15.8144304 L54.9731366,13.0737975 C54.9731366,12.4198734 54.4403241,11.8898734 53.7826157,11.8898734 Z M16.6535417,5.7521519 C17.3341667,4.92506329 18.3409722,4.45050633 19.4156366,4.45050633 L35.5573727,4.45050633 C36.632037,4.45050633 37.6392245,4.92506329 38.3197222,5.7521519 C40.2863542,8.14240506 41.8394676,10.4298734 43.0397917,12.708481 L11.9058449,12.7143038 C13.0799421,10.4863291 14.6418403,8.19696203 16.6535417,5.7521519 Z M13.2607292,30.0877215 C10.9775926,30.0877215 9.12694444,29.3463291 9.12694444,27.5477215 C9.12694444,25.7492405 9.79840278,24.2908861 12.081412,24.2908861 C14.3644213,24.2908861 17.3942593,25.7492405 17.3942593,27.5477215 C17.3942593,29.3462025 15.5434838,30.0877215 13.2607292,30.0877215 Z M31.8197917,29.7129114 L23.1535995,29.7129114 C21.8470949,29.7129114 20.7842708,28.6562025 20.7842708,27.3573418 C20.7842708,26.993038 21.0814236,26.6975949 21.4480903,26.6975949 L33.5255556,26.6975949 C33.8920949,26.6975949 34.1889931,26.993038 34.1889931,27.3573418 C34.1889931,28.6563291 33.126169,29.7129114 31.8197917,29.7129114 Z M41.7125347,30.0877215 C39.4295255,30.0877215 37.57875,29.3463291 37.57875,27.5477215 C37.57875,25.7492405 40.6089699,24.2908861 42.8915972,24.2908861 C45.1746065,24.2908861 45.8461921,25.7492405 45.8461921,27.5477215 C45.8461921,29.3462025 43.9956713,30.0877215 41.7125347,30.0877215 Z"></path>
                                    </g>
                                </g>
                            </g>
                        </g>
                    </g>
                </g>
            </g>
        </g>
    </g>
</svg>