<?xml version="1.0" encoding="UTF-8"?>
<svg width="88px" height="88px" viewBox="0 0 88 88" version="1.1" xmlns="http://www.w3.org/2000/svg" xmlns:xlink="http://www.w3.org/1999/xlink">
    <!-- Generator: Sketch 52.6 (67491) - http://www.bohemiancoding.com/sketch -->
    <title>spep-1</title>
    <desc>Created with Sketch.</desc>
    <defs>
        <rect id="path-1" x="0" y="0" width="88" height="88" rx="8"></rect>
    </defs>
    <g id="folga_design" stroke="none" stroke-width="1" fill="none" fill-rule="evenodd">
        <g transform="translate(-238.000000, -6709.000000)" id="art11">
            <g transform="translate(154.000000, 6582.000000)">
                <g id="content" transform="translate(0.000000, 103.000000)">
                    <g id="1">
                        <g id="item" transform="translate(16.000000, 24.000000)">
                            <g id="spep-1" transform="translate(68.000000, 0.000000)">
                                <mask id="mask-2" fill="white">
                                    <use xlink:href="#path-1"></use>
                                </mask>
                                <use id="Rectangle" fill="#00E49E" fill-rule="nonzero" xlink:href="#path-1"></use>
                                <g id="flaticon1550590346-svg" mask="url(#mask-2)" fill="#143254" fill-rule="nonzero">
                                    <g transform="translate(20.000000, 25.000000)" id="Combined-Shape">
                                        <path d="M43.6976842,37.9808684 L4.28428312,37.9808684 C3.20580762,37.9808684 2.27063521,37.6221062 1.47623956,36.913709 L15.0729583,23.2146651 C15.4130526,23.4606559 15.7276225,23.6904988 16.0112668,23.8999815 C17.0291107,24.6551547 17.8543448,25.2442864 18.4882759,25.6664988 C19.1215971,26.0896767 19.9650381,26.5210162 21.0185118,26.9613949 C22.0719855,27.402388 23.0535027,27.6220508 23.9641089,27.6220508 L23.9907659,27.6220508 L24.0174229,27.6220508 C24.9279419,27.6220508 25.9094592,27.4023002 26.96302,26.9613949 C28.0158838,26.5210162 28.8593249,26.0896767 29.4932559,25.6664988 C30.127274,25.2442864 30.9529437,24.655067 31.970265,23.8999815 C32.2688929,23.6824249 32.5850309,23.4536351 32.9111869,23.218351 L46.5052922,36.913709 C45.7108094,37.6221062 44.7762468,37.9808684 43.6976842,37.9808684 Z M2.70463884,14.5943695 C6.49629038,17.1901293 9.58475499,19.3272564 11.9817931,21.0131224 L-7.46069873e-14,33.0836952 L-7.46069873e-14,12.247321 C0.785335753,13.1286928 1.68740472,13.9111594 2.70463884,14.5943695 Z M45.3045953,14.5943695 C46.3218294,13.8929053 47.2142287,13.1109654 47.9821416,12.247321 L47.9821416,33.0842217 L36.0051397,21.0179492 C38.5578512,19.2219446 41.6575535,17.0811316 45.3045953,14.5943695 Z M43.6976842,0.0011408776 C44.8579601,0.0011408776 45.8623013,0.423792148 46.7104465,1.26865589 C47.5576334,2.11457275 47.9821416,3.13021709 47.9821416,4.31716859 C47.9821416,5.73782448 47.5443049,7.09555658 46.6709837,8.3899261 C45.7960944,9.68429561 44.7075136,10.7906836 43.4045445,11.7075104 C39.0721742,14.7367159 35.8029474,17.023649 33.5830998,18.5774365 C32.3631506,19.4308129 31.4557677,20.0662818 30.8734955,20.4744527 C30.7871652,20.5356212 30.6523122,20.6322448 30.473118,20.7617783 C30.2801597,20.9008776 30.0359782,21.0781524 29.7353466,21.2972887 C29.1551652,21.7200277 28.6732486,22.0615889 28.2894229,22.3225866 C27.9049002,22.5830577 27.4411034,22.8752979 26.8968131,23.1991316 C26.352,23.5230531 25.8389837,23.765709 25.3571543,23.9274503 C24.8750635,24.0891039 24.4287768,24.170194 24.0183811,24.170194 L23.9917241,24.170194 L23.9650672,24.170194 C23.5545844,24.170194 23.1083848,24.0891039 22.6263811,23.9274503 C22.1444646,23.765709 21.6310127,23.5225266 21.0866352,23.1991316 C20.5418221,22.8752979 20.0774156,22.5836721 19.6941125,22.3225866 C19.3102868,22.0615889 18.8283702,21.71994 18.2482759,21.2972887 C17.9470345,21.0781524 17.702853,20.9009654 17.5098947,20.7613395 C17.3307877,20.6323326 17.1958475,20.5350947 17.1100399,20.4744527 C16.3625989,19.9449099 15.4573067,19.3068083 14.4075789,18.5699769 C13.1760436,17.7046651 11.7429256,16.7019215 10.0949837,15.5514781 C7.04223593,13.4208453 5.21248639,12.1393764 4.60573503,11.7075104 C3.49894737,10.9523372 2.45453358,9.91413857 1.47301633,8.59238799 C0.491499093,7.27011085 0.000522686025,6.04278984 0.000522686025,4.9100739 C0.000522686025,3.50775982 0.370497278,2.33844804 1.11166606,1.40345497 C1.85222505,0.468900693 2.90935753,0.0011408776 4.28437024,0.0011408776 L43.6976842,0.0011408776 Z"></path>
                                    </g>
                                </g>
                            </g>
                        </g>
                    </g>
                </g>
            </g>
        </g>
    </g>
</svg>