<?xml version="1.0" encoding="UTF-8"?>
<svg width="88px" height="88px" viewBox="0 0 88 88" version="1.1" xmlns="http://www.w3.org/2000/svg" xmlns:xlink="http://www.w3.org/1999/xlink">
    <!-- Generator: Sketch 52.6 (67491) - http://www.bohemiancoding.com/sketch -->
    <title>spep-2</title>
    <desc>Created with Sketch.</desc>
    <defs>
        <rect id="path-1" x="0" y="0" width="88" height="88" rx="8"></rect>
    </defs>
    <g id="folga_design" stroke="none" stroke-width="1" fill="none" fill-rule="evenodd">
        <g transform="translate(-526.000000, -6709.000000)" id="art11">
            <g transform="translate(154.000000, 6582.000000)">
                <g id="content" transform="translate(0.000000, 103.000000)">
                    <g id="2" transform="translate(288.000000, 0.000000)">
                        <g id="item" transform="translate(16.000000, 24.000000)">
                            <g id="spep-2" transform="translate(68.000000, 0.000000)">
                                <mask id="mask-2" fill="white">
                                    <use xlink:href="#path-1"></use>
                                </mask>
                                <use id="Rectangle" fill="#00E49E" fill-rule="nonzero" xlink:href="#path-1"></use>
                                <g id="flaticon1550590371-svg" mask="url(#mask-2)" fill="#143254" fill-rule="nonzero">
                                    <g transform="translate(20.000000, 20.000000)" id="Path">
                                        <path d="M47.9030052,37.8791419 C48.0045596,38.658519 47.7674611,39.3361661 47.1927047,39.912083 L40.4448497,46.6205398 C40.1404352,46.9593633 39.7430881,47.2476125 39.2526425,47.4845398 C38.7621969,47.7217993 38.2802902,47.8742699 37.8069223,47.9419516 C37.7730984,47.9419516 37.6713782,47.9506713 37.5021762,47.9676125 C37.3333057,47.9844706 37.1134508,47.9931073 36.8428601,47.9931073 C36.2000415,47.9931073 35.1598756,47.8829896 33.7223627,47.6626713 C32.2848497,47.4423529 30.5260933,46.9001522 28.4460933,46.0363183 C26.3655959,45.1723183 24.0064663,43.8761522 21.3682902,42.1483183 C18.730114,40.4205675 15.9226528,38.0486367 12.9461554,35.0330242 C10.578487,32.6951419 8.61670466,30.4589066 7.06080829,28.3244014 C5.50491192,26.1897301 4.25343005,24.216083 3.30636269,22.4033772 C2.35921244,20.5906713 1.64891192,18.9473772 1.17537824,17.4734948 C0.70184456,15.9996125 0.380518135,14.7290242 0.211398964,13.6617301 C0.0422797927,12.594436 -0.0253678756,11.7558478 0.00845595855,11.1459654 C0.0422797927,10.536083 0.0591917098,10.1972595 0.0591917098,10.1294948 C0.126839378,9.65514187 0.279046632,9.17231834 0.515813472,8.68102422 C0.752580311,8.1897301 1.0400829,7.79161246 1.37832124,7.48667128 L8.12617617,0.727141869 C8.59970984,0.252788927 9.14089119,0.0156124567 9.74972021,0.0156124567 C10.1894301,0.0156124567 10.5784041,0.14267128 10.9166425,0.396788927 C11.2548808,0.650906574 11.5423834,0.964318339 11.7791503,1.33702422 L17.2078756,11.6542007 C17.5122902,12.1963183 17.5968497,12.7892595 17.4615544,13.4330242 C17.3262591,14.0767889 17.0387565,14.6189066 16.5990466,15.0593772 L14.1129948,17.5497301 C14.0453472,17.6174948 13.9861554,17.7276125 13.9354197,17.880083 C13.8846839,18.0325536 13.8593161,18.1596125 13.8593161,18.2612595 C13.9946114,18.9727889 14.2990259,19.7859654 14.7725596,20.7007889 C15.1784456,21.5139654 15.8041865,22.5050242 16.6497824,23.6739654 C17.4953782,24.8429066 18.6961244,26.1896471 20.2520207,27.7143529 C21.7740933,29.2731073 23.1270466,30.4842353 24.3108808,31.3484014 C25.4944663,32.2120692 26.4841451,32.8476125 27.2790052,33.2542007 C28.0738653,33.6607889 28.6826943,33.906436 29.1054093,33.9908927 L29.7394404,34.1180346 C29.8070881,34.1180346 29.9172642,34.0925398 30.0693057,34.0417993 C30.221513,33.9908927 30.3314404,33.9316817 30.399171,33.8638339 L33.2910259,30.9160692 C33.9001865,30.3740346 34.6101554,30.1029758 35.4220104,30.1029758 C35.9971813,30.1029758 36.4535544,30.2045398 36.7917927,30.407917 L36.8424456,30.407917 L46.6343627,36.2017993 C47.3449119,36.6426021 47.7676269,37.2014948 47.9030052,37.8791419 Z"></path>
                                    </g>
                                </g>
                            </g>
                        </g>
                    </g>
                </g>
            </g>
        </g>
    </g>
</svg>