<?xml version="1.0" encoding="UTF-8"?>
<svg width="88px" height="88px" viewBox="0 0 88 88" version="1.1" xmlns="http://www.w3.org/2000/svg" xmlns:xlink="http://www.w3.org/1999/xlink">
    <!-- Generator: Sketch 52.6 (67491) - http://www.bohemiancoding.com/sketch -->
    <title>spep-4</title>
    <desc>Created with Sketch.</desc>
    <defs>
        <rect id="path-1" x="0" y="0" width="88" height="88" rx="8"></rect>
    </defs>
    <g id="folga_design" stroke="none" stroke-width="1" fill="none" fill-rule="evenodd">
        <g transform="translate(-1102.000000, -6709.000000)" id="art11">
            <g transform="translate(154.000000, 6582.000000)">
                <g id="content" transform="translate(0.000000, 103.000000)">
                    <g id="4" transform="translate(864.000000, 0.000000)">
                        <g id="item" transform="translate(16.000000, 24.000000)">
                            <g id="spep-4" transform="translate(68.000000, 0.000000)">
                                <mask id="mask-2" fill="white">
                                    <use xlink:href="#path-1"></use>
                                </mask>
                                <use id="Rectangle" fill="#00E49E" fill-rule="nonzero" xlink:href="#path-1"></use>
                                <g id="flaticon1550590441-svg" mask="url(#mask-2)" fill="#143254" fill-rule="nonzero">
                                    <g transform="translate(18.000000, 20.000000)" id="Combined-Shape">
                                        <path d="M47.9072941,14.0147973 C48.4479412,14.0147973 48.9159412,14.2123736 49.3107479,14.6078542 C49.7063193,15.0032255 49.902958,15.4710888 49.902958,16.0125376 L49.902958,45.9807198 C49.902958,46.5218405 49.7055546,46.9903599 49.3107479,47.3854032 C48.9155042,47.7808838 48.4479412,47.9788975 47.9072941,47.9788975 L3.99252941,47.9788975 C3.45155462,47.9788975 2.98366387,47.7808838 2.5887479,47.3854032 C2.19361345,46.9902506 1.99621008,46.5217312 1.99621008,45.9807198 L1.99621008,16.0125376 C1.99621008,15.4714169 2.19361345,15.0031162 2.5887479,14.6078542 C2.98366387,14.2123736 3.45155462,14.0147973 3.99252941,14.0147973 L47.9072941,14.0147973 Z M31.3449664,23.4109886 C31.7401008,23.015508 31.9379412,22.5473166 31.9379412,22.0059772 C31.9379412,21.4648565 31.7405378,20.9965558 31.3457311,20.6012938 C30.9502689,20.2058132 30.4824874,20.0080182 29.9422773,20.0080182 L21.957,20.0080182 C21.4165714,20.0080182 20.9486807,20.2058132 20.5535462,20.6012938 C20.1586303,20.9966651 19.9610084,21.4649658 19.9610084,22.0059772 C19.9610084,22.547426 20.1586303,23.015508 20.5535462,23.4109886 C20.9487899,23.8062506 21.4166807,24.0040456 21.957,24.0040456 L29.9415126,24.0040456 C30.4821597,24.0040456 30.9502689,23.8063599 31.3449664,23.4109886 Z M51.3071765,0.622687927 C51.7018739,1.01794989 51.8992773,1.48592255 51.8992773,2.0273713 L51.8992773,10.0188793 C51.8992773,10.56 51.7018739,11.028082 51.3071765,11.4235626 C50.911605,11.8190433 50.4434958,12.0166196 49.902958,12.0166196 L1.99621008,12.0166196 C1.45556303,12.0166196 0.987781513,11.8190433 0.592756303,11.4235626 C0.197621849,11.0279727 -2.20268248e-13,10.5598907 -2.20268248e-13,10.0188793 L-2.20268248e-13,2.0273713 C-2.20268248e-13,1.48625057 0.197621849,1.01794989 0.592647059,0.622687927 C0.987672269,0.227207289 1.45556303,0.0296309795 1.99610084,0.0296309795 L49.9036134,0.0296309795 C50.4443697,0.0296309795 50.9119328,0.227207289 51.3071765,0.622687927 Z"></path>
                                    </g>
                                </g>
                            </g>
                        </g>
                    </g>
                </g>
            </g>
        </g>
    </g>
</svg>